<svg xmlns="http://www.w3.org/2000/svg" width="1047" height="318" viewBox="0 0 1047 318" fill="none"><path d="M111.649 314.283C100.61 305.686 91.3401 295.825 83.8406 284.7C75.8354 273.491 69.5159 261.524 64.3763 248.715C59.1525 236.41 55.1086 223.264 52.1604 209.78C49.1841 196.465 47.1349 182.785 46.0128 168.74C45.1716 155.089 45.3698 141.437 46.6074 127.786C47.508 114.078 49.757 100.596 53.3544 87.3378C56.6428 73.8553 61.3639 61.1314 67.0963 48.5762C70.1872 42.5093 73.6152 36.4987 77.3803 30.5442C73.3343 36.1054 69.7377 42.0879 66.5906 48.4919C60.4369 60.4571 55.6315 73.6866 52.3431 87.1691C48.7456 100.427 46.3281 113.881 45.0905 127.533C43.4595 141.465 43.0646 155.257 43.9058 168.909C44.6908 182.897 46.5433 196.718 49.4634 210.37C51.906 223.769 55.9498 236.916 61.005 250.231C66.1445 263.041 72.3797 275.513 80.3849 286.722C84.261 292.566 88.5305 298.128 93.1933 303.41C98.2495 308.41 103.53 313.102 109.036 317.485L111.649 314.283Z" fill="white"></path><path d="M87.5521 256.218C88.0016 255.6 88.4231 255.151 88.8164 254.87L91.3451 252.174C93.368 250.432 95.5313 248.888 97.8351 247.54C101.965 244.591 106.516 242.232 110.815 241.39C111.039 242.121 111.067 242.991 110.899 244.003C110.842 244.34 110.955 244.705 111.236 245.098L110.477 249.649C109.971 250.604 109.634 251.587 109.465 252.598L107.442 258.496C107.048 258.777 106.795 259.255 106.683 259.929C106.29 260.21 106.037 260.687 105.924 261.361C105.475 261.979 104.828 262.738 103.986 263.636C101.878 266.922 98.6752 270.546 95.6409 273.157C92.5222 276.275 88.5609 278.212 84.6839 279.644C86.8193 277.229 88.6175 274.757 90.0786 272.23C91.8206 270.095 93.4222 267.764 94.8833 265.236L99.098 258.664C99.2104 257.989 99.4914 257.343 99.941 256.726C100.391 256.108 100.672 255.462 100.784 254.787L98.6767 258.074C96.3726 261.5 93.9001 264.899 91.259 268.269C90.8094 268.887 90.388 269.336 89.9946 269.617C89.5451 270.235 89.1236 270.684 88.7303 270.965C88.2245 271.92 87.5502 272.847 86.7073 273.746C85.4148 275.263 83.9257 276.92 82.2399 278.717L81.566 276.526C81.3413 275.796 81.3133 274.925 81.482 273.914C81.426 272.172 81.5667 270.29 81.904 268.268C82.1852 266.582 82.663 264.757 83.3374 262.79C84.349 260.88 85.3324 259.139 86.2878 257.566C86.7373 256.948 87.1588 256.499 87.5521 256.218Z" fill="white"></path><path d="M48.6961 286.633C51.7301 287.139 54.6236 287.449 57.3767 287.561C60.4669 287.73 63.4167 287.703 66.226 287.479C69.3724 287.31 72.4065 286.777 75.3283 285.879C72.7153 289.081 69.1753 291.608 65.214 293.546C61.2526 295.483 56.9543 296.325 52.2347 296.577L45.6611 295.481C43.0205 294.694 40.5765 293.767 38.3292 292.699C37.037 292.137 35.7729 291.406 34.5369 290.507C33.2447 289.945 32.1491 289.243 31.2503 288.4L29.3963 287.052C29.1154 286.658 28.666 286.237 28.048 285.787C27.2053 284.607 26.3346 283.596 25.4357 282.753C29.1443 279.214 33.6113 277.361 38.584 275.592C41.1124 274.975 43.6127 274.526 46.0849 274.245C47.4896 274.133 48.8661 274.189 50.2146 274.414C50.945 274.19 51.6473 274.134 52.3215 274.246L53.8385 274.499C55.9174 274.5 57.9682 274.668 59.9908 275.006C62.2943 275.736 64.4293 276.439 66.3957 277.113C68.3059 278.125 70.0476 279.108 71.6207 280.064L73.4747 281.412C74.0926 281.862 74.6825 282.48 75.2443 283.267C73.053 283.94 70.8898 284.446 68.7547 284.782L65.552 285.287C64.8216 285.512 64.2878 285.596 63.9507 285.54C63.2203 285.765 62.6865 285.849 62.3494 285.793C57.7421 286.41 53.0505 286.493 48.2748 286.043C45.5217 285.93 42.8249 285.481 40.1842 284.694C41.4764 285.256 42.7967 285.649 44.1452 285.874L48.6961 286.633Z" fill="white"></path><path d="M68.7597 241.131C69.8557 237.676 71.9631 234.39 74.4917 231.694C77.6104 228.576 81.7404 225.628 86.2917 223.269C90.7587 221.415 95.1413 220.068 99.3553 219.731C99.2428 220.406 99.2708 221.276 99.4393 222.344L99.2706 223.355C99.2144 223.692 98.9615 224.17 98.5119 224.787C98.2308 226.473 97.5845 228.27 96.5729 230.18C96.4042 231.192 96.067 232.175 95.5612 233.13C95.0554 234.085 94.5778 234.871 94.1282 235.489C92.7795 237.343 91.459 239.028 90.1665 240.544C85.1092 245.937 77.5235 250.908 70.0226 252.255C72.1017 250.176 73.9842 248.238 75.6699 246.441C77.749 244.363 79.6315 242.425 81.3173 240.627C82.2164 239.392 83.0874 238.324 83.9303 237.426C84.4361 236.471 85.1385 235.375 86.0376 234.139C87.7234 232.342 89.2687 230.348 90.6736 228.157C88.9878 229.954 87.274 231.92 85.532 234.055C85.0824 234.673 84.4362 235.431 83.5933 236.33C83.1437 236.948 82.4975 237.706 81.6546 238.605C80.0813 239.728 78.6484 241.048 77.3559 242.565L72.4673 246.946C70.894 248.069 69.2925 249.361 67.663 250.822C67.4383 250.091 67.3822 249.389 67.4946 248.715C67.27 247.985 67.2139 247.282 67.3263 246.608C67.6074 244.923 68.0852 243.097 68.7597 241.131Z" fill="white"></path><path d="M59.993 256.298C53.9243 261.522 45.2434 263.711 37.0684 262.868C35.0458 262.53 32.9108 261.828 30.6635 260.76C29.6522 260.591 28.5285 260.057 27.2925 259.158L24.4272 257.641C22.2361 256.236 20.2698 254.522 18.5283 252.5C18.2474 252.106 17.798 251.685 17.18 251.235L16.3373 250.055C15.4947 248.876 14.8206 247.724 14.3151 246.6C17.8551 244.073 22.2377 242.725 27.0417 241.967C32.267 241.8 36.9023 242.053 41.9589 242.897C45.4985 243.487 49.3751 245.173 52.6618 247.28C54.2349 248.235 55.7798 249.359 57.2967 250.652L59.1507 252C59.3753 252.731 59.7967 253.321 60.4147 253.77C58.2796 254.107 56.1726 254.275 54.0937 254.275C51.9586 254.611 49.8516 254.78 47.7727 254.779C45.413 254.386 43.1937 254.189 41.1148 254.188L38.0808 253.682C37.0695 253.514 36.0863 253.176 35.1312 252.671C32.4343 252.221 29.7937 251.434 27.2093 250.31L34.9625 253.682C36.3109 253.907 37.6313 254.3 38.9235 254.862L42.9688 255.537C45.6656 255.987 48.3906 256.268 51.1437 256.381C53.8968 256.494 56.8465 256.466 59.993 256.298Z" fill="white"></path><path d="M66.404 205.401C68.0336 203.94 69.8035 202.676 71.714 201.609C73.6244 200.542 75.7034 199.503 77.951 198.492C82.3336 197.145 86.6319 196.303 90.7616 196.472C90.8175 198.213 90.5364 199.899 89.9182 201.528C89.4124 202.483 88.9347 203.269 88.4852 203.887L86.9678 206.752C85.3661 210.123 82.7531 213.324 79.8031 215.431C74.3245 220.233 66.4862 223.603 59.1539 223.939L65.6439 219.305L71.7125 214.081C73.3421 212.621 74.9998 210.992 76.6856 209.194L81.7429 203.802C80.0571 205.599 78.2309 207.2 76.2642 208.604C73.7356 211.301 70.7293 213.744 67.2456 215.934C64.0989 218.181 60.8118 220.231 57.3843 222.084C57.2158 221.017 57.4407 219.669 58.059 218.04C58.2839 216.691 58.7054 215.203 59.3236 213.574C60.279 212.001 61.4029 210.456 62.6953 208.939C63.6507 207.366 64.8869 206.187 66.404 205.401Z" fill="white"></path><path d="M41.708 225.706C44.0678 226.099 46.6242 226.352 49.3773 226.465C43.4773 230.678 34.965 231.856 27.5488 229.58C23.5878 228.399 19.7955 226.208 16.0876 223.511C15.1887 222.668 14.4584 221.853 13.8966 221.067C12.9977 220.224 12.2955 219.24 11.79 218.117C10.3293 216.487 9.09347 214.549 8.08238 212.302C11.9594 210.87 16.342 209.522 20.9773 209.776C23.0562 209.776 25.2755 209.973 27.6352 210.367C29.995 210.76 32.3266 211.322 34.6302 212.053C36.3157 212.334 37.945 212.952 39.5181 213.908C41.0912 214.863 42.6362 215.987 44.1531 217.279C45.7262 218.234 46.934 219.302 47.7767 220.482C48.9564 221.718 49.7991 222.898 50.3046 224.022C46.1469 224.021 42.1858 223.88 38.4214 223.598C34.3761 222.924 30.5837 221.771 27.0442 220.142C24.4035 219.355 22.1281 218.455 20.2179 217.444C21.173 217.95 22.2967 218.484 23.5889 219.046C24.4877 219.888 25.5833 220.591 26.8755 221.153C29.1228 222.221 31.5668 223.148 34.2074 223.935C36.511 224.665 39.0112 225.256 41.708 225.706Z" fill="white"></path><path d="M51.1509 194.022C51.4882 192 52.4999 189.05 54.0172 186.185C56.0403 183.405 58.5689 180.709 60.9289 179.024C67.9246 174.474 77.6168 172.453 84.7805 173.128L84.3588 175.656C84.2463 176.331 83.9372 177.145 83.4314 178.1C82.5323 179.336 81.6051 180.74 80.6497 182.313C78.5424 185.599 75.5081 188.211 73.1481 189.896C67.2481 194.109 59.5785 196.467 52.9205 195.876C57.1347 193.461 61.2085 190.849 65.1418 188.041C67.1085 186.637 68.9066 185.205 70.5361 183.744L75.4248 179.363C73.7952 180.823 72.1938 182.115 70.6205 183.239C64.7205 187.451 58.2306 191.046 51.1509 194.022Z" fill="white"></path><path d="M43.3126 197.391C37.1599 200.003 29.322 200.254 22.4957 197.557C19.0404 196.461 15.8381 193.848 12.7202 190.73C11.2595 189.1 9.96746 187.499 8.84392 185.926C8.33838 184.802 7.80473 183.847 7.24296 183.06C7.07453 181.993 6.87798 181.094 6.65332 180.364C13.396 177.331 23.0035 178.933 30.8411 181.8C33.7064 183.317 36.993 185.424 39.184 187.868C41.8806 190.397 43.5659 192.757 44.2399 194.948C40.4755 194.666 36.7673 194.048 33.1154 193.092C29.8005 192.193 26.3733 190.928 22.8338 189.298C20.9236 188.287 18.8729 187.079 16.6819 185.674C18.8729 187.079 20.8955 188.456 22.7495 189.804L29.4914 193.007C33.6489 195.087 38.2559 196.548 43.3126 197.391Z" fill="white"></path><path d="M61.6051 162.507C63.5155 161.44 65.2855 160.176 66.915 158.716C64.2179 160.344 61.2118 161.748 57.8967 162.928C54.8625 164.5 51.6879 165.876 48.3728 167.055C48.5977 165.707 48.963 164.556 49.4688 163.601C50.0308 162.309 50.7614 161.045 51.6605 159.809C53.6835 157.028 56.1278 154.838 58.9091 153.743C62.3648 151.721 66.1574 150.794 69.9501 149.868C74.1641 149.531 77.788 149.616 81.3277 150.207C81.0465 151.892 80.4564 153.353 79.5573 154.588C78.6582 155.824 77.5624 157.2 76.27 158.717C75.3709 159.953 74.1346 161.133 72.5613 162.256C71.3251 163.435 70.117 164.446 68.937 165.289C62.7843 167.9 55.7047 169.837 49.7211 168.32C53.8229 166.579 57.7842 164.641 61.6051 162.507Z" fill="white"></path><path d="M21.3193 167.22C19.69 166.602 18.1169 165.646 16.6 164.354C15.4203 163.118 14.1001 161.685 12.6394 160.056C11.5159 158.482 10.5609 156.937 9.7745 155.42C8.70719 153.51 8.14554 151.684 8.08956 149.943C11.3765 148.932 15.0005 149.017 19.0458 149.692C23.0911 150.366 26.9677 152.052 30.3387 153.654C33.204 155.171 35.395 157.615 37.5859 160.059C38.7657 161.296 39.6083 162.475 40.1139 163.599C40.9565 164.779 41.4621 165.903 41.6305 166.97C38.2594 166.408 34.9446 165.508 31.6859 164.272C28.4273 163.036 25.3934 161.49 22.5844 159.636L17.0224 155.59L19.7191 158.119C20.6179 158.961 21.5449 159.636 22.5 160.141C24.0169 161.434 25.899 162.614 28.1463 163.682C31.9105 166.042 36.1242 167.784 40.7875 168.908C34.7192 171.014 27.5556 170.339 21.3193 167.22Z" fill="white"></path><path d="M66.7485 141.019C61.1859 143.209 54.7806 144.22 48.8813 142.196C52.8706 141.129 56.7476 139.697 60.5123 137.9C64.2769 136.103 67.7326 134.081 70.8792 131.835C69.3059 132.958 67.5921 133.885 65.7379 134.615C63.097 135.906 60.2876 137.17 57.3096 138.405C54.0507 139.248 50.82 139.921 47.6173 140.426C48.0669 139.808 48.5727 138.853 49.1347 137.561C49.6405 136.606 50.5115 135.539 51.7477 134.36C53.6864 132.085 56.0463 130.4 58.8277 129.305C65.486 126.778 73.9139 126.105 79.7289 128.634C79.5602 129.645 79.0263 130.768 78.1272 132.004C77.228 133.24 76.1604 134.448 74.9242 135.627C73.6879 136.807 72.3113 137.79 70.7942 138.576C69.6142 139.419 68.2656 140.233 66.7485 141.019Z" fill="white"></path><path d="M19.3003 135.703C17.7834 134.411 16.6317 133.006 15.8453 131.489C14.7218 129.916 13.7668 128.371 12.9804 126.854L11.8011 121.46C18.712 120.534 26.634 122.895 32.7016 127.025C35.0612 128.458 37.2522 130.902 38.9375 133.262C39.7239 134.779 40.3699 136.099 40.8754 137.223C41.381 138.347 41.7179 139.442 41.8864 140.51C38.5715 139.61 35.4814 138.402 32.6161 136.885C29.7508 135.367 27.0822 133.71 24.6102 131.912L20.0596 128.035C22.7 130.9 25.8742 133.681 29.5822 136.379C33.0092 138.683 36.6892 140.509 40.622 141.858C35.1437 143.542 28.0645 142.362 22.9239 138.906C21.6879 138.007 20.48 136.939 19.3003 135.703Z" fill="white"></path><path d="M61.7791 114.726C63.6333 113.996 65.319 113.238 66.8361 112.452C67.9036 112.284 68.8307 111.919 69.6174 111.357C70.3478 111.132 71.1064 110.739 71.8931 110.178C70.376 110.964 68.7184 111.553 66.9204 111.946C64.3358 112.901 61.5826 113.828 58.6608 114.726C55.7952 115.287 52.7893 115.652 49.6428 115.82C50.0924 115.202 50.5701 114.416 51.0759 113.461L53.6045 110.765C55.9645 109.08 58.3245 107.395 61.0215 106.805C62.4824 106.356 64.1118 105.935 65.9098 105.542L71.1351 105.374C74.1691 105.88 77.7087 106.471 80.1527 107.398C79.5907 108.69 78.8882 109.785 78.0453 110.684C77.1462 111.92 76.1067 112.959 74.9267 113.802L71.3867 116.329C69.8696 117.115 68.5772 117.593 67.5097 117.761C62.0314 119.446 55.7104 119.95 50.9068 117.59C54.8399 116.86 58.464 115.906 61.7791 114.726Z" fill="white"></path><path d="M23.7701 108.906C22.9275 107.726 22.1129 106.378 21.3265 104.861C20.5401 103.344 19.9222 101.855 19.4729 100.394C18.7427 98.5402 18.49 96.9391 18.7149 95.5908C21.4119 95.0013 24.9515 95.5918 28.3225 97.1934C29.6147 97.7554 31.0474 98.514 32.6204 99.4693C34.1935 100.425 35.5981 101.352 36.8341 102.251C39.1094 104.189 40.7947 106.549 41.9743 108.825C42.8169 110.005 43.3225 111.128 43.4909 112.196C43.9965 113.319 44.3335 114.415 44.5019 115.482C41.5804 114.302 38.8836 112.813 36.4117 111.015C33.8835 109.554 31.5801 107.784 29.5014 105.705C27.9845 104.412 26.6362 103.148 25.4565 101.912L27.1418 104.272C27.7035 105.058 28.2934 105.676 28.9114 106.126C30.3721 107.755 31.8608 109.216 33.3777 110.509C36.1305 112.7 39.4172 114.807 43.2376 116.83C37.4223 117.419 31.4387 115.902 26.8881 112.025C25.933 111.519 24.8936 110.479 23.7701 108.906Z" fill="white"></path><path d="M69.8726 91.1324C67.3441 91.75 64.6753 92.171 61.8659 92.3952C59.3375 93.0128 56.6968 93.2652 53.9437 93.1524C54.7023 91.72 56.051 89.8663 57.821 88.6025C60.181 86.9175 62.3724 86.2437 64.5636 85.5699C70.4633 84.4753 77.6269 85.1506 82.3462 88.0164C81.5032 89.9545 79.1431 91.6395 76.7831 93.3245C74.5075 94.5039 72.2318 95.6833 69.5348 96.2728C64.6465 97.5361 58.9999 97.1139 54.702 94.8379C58.2417 94.389 61.641 93.7435 64.8999 92.9013C66.6979 92.5084 68.3273 92.0873 69.7882 91.6381C71.3053 90.8518 72.7943 90.234 74.2552 89.7848L69.8726 91.1324Z" fill="white"></path><path d="M47.707 93.1515C42.4818 93.3192 37.0881 91.3802 33.5489 87.6718C31.7792 85.8176 29.5883 83.3735 28.493 80.5924C27.3977 77.8114 26.8924 74.6091 27.3984 71.5755C32.6237 71.4078 38.7756 75.0323 43.2419 79.4149C45.0115 81.2691 46.6968 83.6289 47.3708 85.82C48.5504 88.0955 49.2244 90.2866 48.9714 91.8034C46.387 90.6794 44.0273 89.2464 41.8925 87.5046C39.7576 85.7627 37.7913 84.0489 35.9936 82.3633C36.78 83.8802 37.9316 85.2849 39.4485 86.5772C41.808 89.0495 44.5609 91.2409 47.707 93.1515Z" fill="white"></path><path d="M74.173 71.5827C69.5657 72.2 64.6775 72.4239 59.5085 72.2546C60.2671 70.8222 62.0371 69.5584 63.8071 68.2946C65.5771 67.0309 67.7684 66.3571 70.3811 66.2732C75.6907 65.5999 81.6743 67.1176 85.8036 70.4048C85.354 71.0227 84.5393 71.7529 83.3593 72.5954C82.5726 73.157 81.6174 73.6906 80.4936 74.196C78.218 75.3754 76.0266 76.0493 73.8353 76.7231C69.1157 76.9752 64.0591 76.1317 60.3511 73.4345C63.4413 73.6035 66.5877 73.4355 69.7904 72.9303C72.993 72.4252 75.8867 71.6953 78.4713 70.7407C77.0105 71.1899 75.5777 71.4706 74.173 71.5827Z" fill="white"></path><path d="M41.3893 65.5946C40.1253 63.8247 39.03 61.0437 37.9347 58.2626C37.4292 57.139 37.1203 55.8749 37.0081 54.4704C36.8959 53.0659 37.1208 51.7176 37.6828 50.4256C42.3181 50.6791 47.88 54.7249 51.335 58.9389C52.5989 60.7087 53.8629 62.4785 54.5369 64.6696C55.2109 66.8607 55.3792 68.9675 55.1262 70.4843C51.4182 67.7871 47.2889 64.5 44.3397 60.3703L41.8117 56.8307C43.4408 59.5275 45.2384 62.2525 47.2046 65.0056C49.227 67.4216 51.4742 69.5287 53.9462 71.3268C49.2265 71.5789 44.9286 69.3029 41.3893 65.5946Z" fill="white"></path><path d="M66.8429 53.211C67.2924 52.5931 67.9106 52.0033 68.6972 51.4416C69.4839 50.8799 70.2424 50.4868 70.9729 50.2622C72.0967 49.7567 73.1923 49.4198 74.2599 49.2515C74.9903 49.0269 75.8893 48.8304 76.9568 48.662C82.0978 48.9999 87.4914 50.9389 90.6094 54.0573C89.345 55.4054 87.6594 56.1636 85.468 56.8374C84.3443 57.3428 83.2486 57.6798 82.1811 57.8481L78.9784 58.3532C74.8488 58.1841 70.3822 56.9193 67.1799 54.3065C70.2138 54.8126 73.1355 54.9535 75.9448 54.7292C77.2773 54.6228 78.5719 54.5101 79.8285 54.3911C77.8453 54.3711 75.7361 54.1747 73.5008 53.8019C71.422 53.8015 69.2026 53.6046 66.8429 53.211Z" fill="white"></path><path d="M51.5051 45.4558C50.9433 44.6692 50.4096 43.7141 49.9041 42.5905C49.3986 41.4668 49.0897 40.2027 48.9775 38.7982C48.3878 36.1015 48.8095 33.5735 49.1469 31.5511C53.6978 32.3102 58.2484 36.1873 61.1977 40.3169C61.4224 41.0473 61.7875 41.9743 62.293 43.098C62.7985 44.2216 63.1355 45.3172 63.304 46.3846C63.5286 47.115 63.5566 47.9858 63.3879 48.997C63.5564 50.0644 63.5844 50.9352 63.4719 51.6093C61.6742 49.9237 60.045 48.2661 58.5843 46.6367C57.1237 45.0073 55.8597 43.2374 54.7924 41.3272C53.9498 40.1473 53.3038 38.827 52.8545 37.3662C53.7531 40.2877 55.0451 42.9283 56.7304 45.2881C58.0223 47.9287 59.7357 50.12 61.8706 51.8619C58.2466 51.7771 54.033 48.9955 51.5051 45.4558Z" fill="white"></path><path d="M83.2789 38.8035C84.6835 38.6914 85.8915 38.7196 86.9029 38.8883C87.6333 38.6637 88.3356 38.6077 89.0098 38.7201C89.6841 38.8326 90.2178 38.7484 90.6112 38.4676C89.5436 38.6359 88.5042 38.6358 87.4929 38.4671C83.3913 38.1294 79.5146 37.4827 75.8626 36.5271C75.9188 36.19 76.1436 35.8811 76.537 35.6002C76.8741 35.6565 77.2393 35.5442 77.6326 35.2633C78.0822 34.6454 78.8407 34.2523 79.9083 34.0839C81.5096 33.8314 83.1109 33.5788 85.2179 33.4106C87.2406 33.748 89.3755 34.4506 91.6228 35.5183C93.533 36.5298 95.2185 37.8503 96.6791 39.4797C95.8924 40.0414 95.1339 40.4345 94.4034 40.6591C93.6168 41.2208 92.6897 41.5858 91.6221 41.7542C90.0208 42.0068 87.9138 42.175 85.8068 42.3432C82.2672 41.7528 78.3906 40.0668 75.6939 37.5383L83.2789 38.8035Z" fill="white"></path><path d="M71.4803 34.7568C67.9407 34.1663 64.7384 31.5535 62.7161 28.0982C61.9578 26.4127 61.2838 24.2216 61.1155 22.1148L61.7059 18.5756C61.5374 17.5082 61.7061 16.497 62.2119 15.542C64.2345 15.8794 66.0885 17.228 67.8582 19.0822C69.2065 20.3464 70.8918 22.7062 71.6501 24.3917C72.4084 26.0772 73.0824 28.2683 72.8294 29.7851C72.9978 30.8525 73.0258 31.7233 72.9133 32.3975L72.576 34.4199C69.9356 31.5543 67.7166 28.2394 65.9191 24.4751C65.4136 23.3514 65.0766 22.2559 64.9082 21.1885C64.7957 21.8626 64.8799 22.3963 65.1608 22.7896L65.8348 24.9807L67.3514 28.3517C68.3625 30.599 69.7388 32.7341 71.4803 34.7568Z" fill="white"></path><path d="M95.4166 25.2381C92.1017 24.3387 88.815 23.2708 85.5563 22.0343C86.2307 21.1075 87.832 20.8549 89.4333 20.6024C90.529 20.2655 92.636 20.0972 94.153 20.3503C97.6082 21.4463 101.316 24.1435 103.423 27.0932L101.232 27.767C100.501 27.9916 99.6021 28.1881 98.5345 28.3565C96.9332 28.6091 95.4162 28.356 93.8992 28.103C90.4439 27.007 87.5786 25.4897 85.3877 23.0455C86.7361 23.2705 87.8879 23.6358 88.843 24.1416L95.4166 25.2381Z" fill="white"></path><path d="M82.1854 20.4327C79.3201 18.9154 76.6234 16.3869 75.6125 13.1003C74.7698 11.9204 74.6015 9.81364 74.4332 7.7069L74.9392 4.67329C75.445 3.71832 75.9227 2.93188 76.3722 2.31398C79.2375 3.83126 82.2711 7.4553 83.1978 11.2475C84.0404 12.4274 84.2087 14.5342 83.9557 16.051L83.281 20.0958C80.9777 17.2865 79.433 14.084 78.6468 10.4884C78.3098 10.0165 78.0435 9.49396 77.848 8.9209C77.8413 9.04449 77.8266 9.1737 77.8042 9.30853C78.085 9.70182 78.1693 10.2355 78.0568 10.9097C78.2252 11.9771 78.5622 13.0727 79.0678 14.1963C79.5733 15.32 79.9384 16.247 80.1631 16.9774C80.6686 18.101 81.3427 19.2528 82.1854 20.4327Z" fill="white"></path><path d="M95.1657 8.04717C94.3228 8.94591 93.508 9.67611 92.7214 10.2378C91.8785 11.1365 91.2042 12.0634 90.6984 13.0184C90.6987 9.9004 92.3004 6.52989 94.7447 4.33927C95.9247 3.49677 97.6947 2.23301 99.8861 1.55919C100.617 1.33459 101.515 1.1381 102.583 0.969727L105.617 1.47581C105.027 5.01501 102.329 8.72243 99.3793 10.8287C98.115 12.1768 96.935 13.0193 95.3337 13.2719C93.648 14.03 92.131 13.777 91.0354 14.1139C92.946 10.9682 95.278 8.41236 98.0314 6.44651L100.981 4.34024C100.588 4.62107 100.026 4.87379 99.2957 5.0984L95.1657 8.04717Z" fill="white"></path><path d="M448.869 27.5298L495.891 114.873L542.92 27.5298H569.974V171.056H547.411V61.0534L506.17 137.224H485.003L443.77 61.0534V171.048H421.208V27.5298H448.869ZM640.66 81.041C624.478 81.041 614.741 93.5447 612.407 109.029H667.316C666.181 93.0785 657.223 81.041 640.66 81.041ZM590.039 117.844C590.039 85.2699 610.542 61.5612 641.049 61.5612C671.062 61.5612 688.979 84.9702 688.979 119.584V125.944H612.407C615.122 142.785 626.01 154.132 643.554 154.132C657.555 154.132 666.303 149.745 674.605 141.72L686.587 156.787C675.294 167.451 660.936 173.595 642.752 173.595C609.723 173.612 590.039 148.879 590.039 117.844ZM716.332 83.0972H695.57V64.1335H716.332V32.766H738.1V64.1335H769.645V83.0972H738.1V131.172C738.1 147.589 743.207 153.416 755.773 153.416C761.505 153.416 764.797 152.908 769.653 152.084V170.848C763.605 172.604 757.833 173.412 751.582 173.412C728.087 173.412 716.34 160.226 716.34 133.845L716.332 83.0972ZM861.296 101.545C856.926 90.2148 847.173 81.8651 832.84 81.8651C814.218 81.8651 802.292 95.4344 802.292 117.536C802.292 139.089 813.269 153.316 831.948 153.316C846.63 153.316 857.113 144.542 861.296 133.628V101.545ZM883.064 171.048H861.701V156.08C855.726 164.896 844.863 173.612 827.262 173.612C798.952 173.612 780.038 149.279 780.038 117.536C780.038 85.4947 799.414 61.5612 828.462 61.5612C842.828 61.5612 854.089 67.4551 861.701 77.8693V64.1335H883.064V171.048Z" fill="white"></path><path d="M197.362 37.4366C198.247 41.1535 200.306 44.3453 203.159 46.4243L230.499 66.3436C239.421 83.8341 247.96 95.0392 250.76 98.5232L247.985 110.7C247.895 111.08 247.884 111.473 247.952 111.857C248.02 112.241 248.166 112.608 248.381 112.938C248.596 113.267 248.877 113.551 249.206 113.775C249.536 113.999 249.908 114.157 250.3 114.241C250.693 114.325 251.1 114.333 251.496 114.264C251.892 114.195 252.27 114.051 252.608 113.84C252.947 113.629 253.238 113.356 253.467 113.035C253.695 112.714 253.856 112.353 253.94 111.972L257.027 98.4192C257.126 97.9811 257.121 97.5268 257.012 97.0908C256.904 96.6548 256.694 96.2485 256.399 95.9026C256.282 95.7657 244.584 81.9378 233.39 58.5164C224.75 40.4406 221.718 23.2257 220.786 16.3224H297.715C296.783 23.2264 293.751 40.4406 285.11 58.5178C273.914 81.9393 262.218 95.7672 262.102 95.903C261.807 96.2488 261.596 96.6554 261.488 97.0917C261.379 97.528 261.374 97.9827 261.474 98.421L263.521 107.408C263.607 107.788 263.768 108.147 263.997 108.466C264.227 108.785 264.518 109.057 264.856 109.266C265.194 109.476 265.571 109.618 265.966 109.686C266.361 109.754 266.766 109.746 267.157 109.663C267.549 109.579 267.92 109.421 268.248 109.199C268.577 108.976 268.857 108.693 269.072 108.365C269.288 108.038 269.434 107.672 269.503 107.29C269.573 106.907 269.563 106.515 269.476 106.136L267.741 98.5232C270.539 95.0421 279.067 83.8515 287.982 66.3834L315.281 46.4944C318.134 44.4151 320.193 41.2229 321.077 37.5063L325.318 19.6892C325.604 18.5474 325.584 17.3538 325.258 16.2219C324.933 15.09 324.314 14.0576 323.46 13.2228C322.77 12.5553 321.912 12.0731 320.971 11.8234C320.03 11.5737 319.038 11.5651 318.093 11.7985L303.988 15.3516C304.102 14.3398 304.152 13.7302 304.163 13.5918C304.194 13.1867 304.139 12.7795 304 12.396C303.862 12.0124 303.643 11.6607 303.357 11.3628C303.072 11.0649 302.726 10.8273 302.341 10.6648C301.957 10.5023 301.542 10.4184 301.122 10.4185H217.379C216.959 10.4184 216.544 10.5023 216.159 10.6648C215.775 10.8273 215.429 11.0649 215.143 11.3628C214.858 11.6607 214.639 12.0124 214.501 12.396C214.362 12.7795 214.307 13.1867 214.338 13.5918C214.349 13.7276 214.397 14.3166 214.507 15.2944L200.346 11.7269C199.401 11.4937 198.409 11.5023 197.468 11.752C196.527 12.0016 195.669 12.4837 194.979 13.1509C194.125 13.9859 193.505 15.0187 193.18 16.151C192.855 17.2833 192.835 18.4774 193.121 19.6194L197.362 37.4366ZM319.305 17.5929C319.418 17.8349 319.443 18.1066 319.376 18.3641L315.135 36.1812C314.572 38.5461 313.322 40.5354 311.614 41.7778L293.282 55.1356C297.81 44.368 301.095 33.1489 303.077 21.6825L319.305 17.5929ZM199.134 17.5221L215.416 21.6231C217.394 33.0961 220.676 44.3221 225.203 55.0965L206.825 41.7066C205.117 40.4624 203.867 38.4749 203.304 36.1104L199.063 18.2933C198.996 18.0358 199.021 17.764 199.134 17.5221Z" fill="white"></path><path d="M356.429 140.085C356.242 139.742 355.987 139.438 355.679 139.191C355.37 138.943 355.015 138.757 354.632 138.643C354.25 138.529 353.847 138.489 353.449 138.525C353.05 138.561 352.663 138.673 352.309 138.855L338.756 145.792L316.506 105.034L330.058 98.0965C330.415 97.917 330.732 97.6708 330.99 97.3723C331.249 97.0737 331.443 96.7286 331.563 96.3569C331.683 95.9851 331.726 95.5941 331.689 95.2063C331.652 94.8184 331.536 94.4415 331.348 94.0972C331.16 93.7529 330.904 93.448 330.594 93.2001C330.284 92.9522 329.926 92.7661 329.541 92.6527C329.156 92.5393 328.752 92.5007 328.352 92.5392C327.951 92.5777 327.563 92.6925 327.209 92.877L310.961 101.196C310.246 101.562 309.711 102.188 309.473 102.936C309.234 103.684 309.313 104.493 309.691 105.185L309.843 105.466L304.103 108.403C303.388 108.769 302.853 109.395 302.615 110.143C302.376 110.891 302.455 111.7 302.832 112.393L303.579 113.761L294.699 116.956L262.051 111.413C261.414 111.304 260.757 111.395 260.177 111.671L228.032 127.018C227.065 127.478 226.241 128.179 225.645 129.049C225.049 129.918 224.701 130.925 224.638 131.967C224.575 133.009 224.798 134.049 225.284 134.98C225.771 135.911 226.504 136.701 227.408 137.269L228.297 137.827C232.186 140.279 236.693 141.653 241.331 141.803C245.968 141.952 250.56 140.87 254.608 138.673L259.948 135.906L268.38 142.48C268.97 142.989 269.6 143.482 270.272 143.956L302.626 169.179C303.216 169.643 303.595 170.311 303.681 171.042C303.767 171.773 303.553 172.507 303.086 173.087C302.85 173.378 302.556 173.621 302.222 173.802C301.888 173.982 301.521 174.096 301.141 174.138C300.761 174.18 300.376 174.149 300.009 174.046C299.642 173.943 299.299 173.77 299.002 173.538L268.605 149.838C268.294 149.589 267.935 149.402 267.549 149.289C267.163 149.175 266.757 149.137 266.355 149.177C265.954 149.216 265.564 149.332 265.209 149.519C264.854 149.705 264.541 149.958 264.288 150.262C264.035 150.566 263.847 150.917 263.734 151.292C263.622 151.667 263.588 152.061 263.634 152.449C263.679 152.837 263.805 153.213 264.002 153.554C264.199 153.895 264.464 154.195 264.781 154.436L290.692 174.639L290.697 174.643C291.993 175.655 292.272 177.28 291.343 178.425C291.109 178.714 290.818 178.956 290.486 179.136C290.155 179.316 289.791 179.431 289.414 179.474C289.037 179.518 288.654 179.489 288.289 179.39C287.923 179.29 287.581 179.122 287.283 178.894L284.366 176.572L284.36 176.567C284.204 176.427 284.05 176.286 283.882 176.155L261.046 158.352C260.735 158.102 260.376 157.915 259.99 157.801C259.603 157.688 259.197 157.649 258.796 157.688C258.394 157.728 258.004 157.844 257.649 158.03C257.294 158.217 256.981 158.469 256.727 158.774C256.474 159.078 256.286 159.429 256.173 159.804C256.061 160.18 256.027 160.573 256.073 160.962C256.119 161.35 256.244 161.726 256.441 162.067C256.639 162.409 256.904 162.708 257.222 162.95L280.057 180.752C280.647 181.215 281.025 181.884 281.111 182.615C281.197 183.345 280.984 184.08 280.517 184.66C280.282 184.949 279.991 185.191 279.659 185.371C279.328 185.551 278.963 185.666 278.586 185.71C278.208 185.753 277.825 185.724 277.46 185.624C277.094 185.524 276.752 185.355 276.454 185.127L272.766 182.123C272.47 180.236 271.538 178.497 270.114 177.177C268.69 175.857 266.855 175.03 264.896 174.825C263.849 174.712 262.789 174.778 261.765 175.019C261.319 173.307 260.342 171.768 258.966 170.609C257.59 169.451 255.88 168.728 254.067 168.539C253.362 168.464 252.65 168.469 251.947 168.555C251.71 167.354 251.214 166.216 250.492 165.214C249.77 164.212 248.838 163.368 247.756 162.739C246.675 162.109 245.469 161.707 244.216 161.559C242.963 161.411 241.692 161.52 240.486 161.88C240.173 160.795 239.642 159.78 238.924 158.894C238.186 157.985 237.268 157.227 236.225 156.665C235.181 156.103 234.032 155.748 232.845 155.621C231.658 155.494 230.457 155.597 229.311 155.924C228.166 156.252 227.099 156.797 226.174 157.529L220.057 162.36L213.583 158.612L210.091 150.631C209.804 149.975 209.282 149.442 208.62 149.129L197.915 144.074L200.741 138.897C200.935 138.554 201.055 138.177 201.097 137.788C201.139 137.4 201.1 137.007 200.984 136.632C200.867 136.258 200.675 135.91 200.418 135.608C200.162 135.307 199.846 135.057 199.489 134.874C199.132 134.692 198.742 134.58 198.34 134.544C197.938 134.509 197.532 134.551 197.147 134.669C196.762 134.786 196.405 134.977 196.097 135.229C195.789 135.481 195.535 135.79 195.351 136.138L189.691 146.504L186.647 144.946L205.741 109.971L208.785 111.528L199.107 129.256C198.916 129.599 198.798 129.975 198.758 130.363C198.718 130.75 198.758 131.141 198.875 131.514C198.992 131.887 199.184 132.233 199.44 132.533C199.696 132.834 200.011 133.082 200.367 133.264C200.723 133.446 201.112 133.558 201.512 133.594C201.913 133.63 202.317 133.588 202.701 133.472C203.085 133.356 203.441 133.167 203.75 132.917C204.058 132.667 204.312 132.36 204.498 132.015L210.846 120.387L216.169 122.695C216.725 122.935 217.342 123.01 217.942 122.908L242.043 118.816C242.438 118.749 242.814 118.607 243.152 118.399C243.49 118.191 243.782 117.921 244.012 117.604C244.242 117.286 244.406 116.928 244.493 116.55C244.58 116.171 244.589 115.78 244.52 115.398C244.45 115.016 244.304 114.651 244.089 114.324C243.875 113.997 243.595 113.714 243.268 113.491C242.94 113.269 242.57 113.111 242.179 113.027C241.788 112.942 241.384 112.933 240.99 113L217.809 116.936L213.702 115.156L215.601 111.677C215.979 110.985 216.057 110.176 215.819 109.428C215.581 108.68 215.045 108.054 214.33 107.688L208.59 104.751L208.743 104.47C209.121 103.778 209.199 102.969 208.961 102.221C208.722 101.473 208.187 100.847 207.472 100.481L191.226 92.1656C190.872 91.9811 190.483 91.8663 190.083 91.8278C189.683 91.7893 189.279 91.8278 188.894 91.9413C188.509 92.0547 188.151 92.2407 187.841 92.4886C187.531 92.7365 187.274 93.0414 187.086 93.3858C186.898 93.7301 186.782 94.107 186.746 94.4948C186.709 94.8827 186.752 95.2737 186.871 95.6455C186.991 96.0172 187.186 96.3623 187.444 96.6609C187.703 96.9594 188.019 97.2055 188.376 97.385L201.929 104.322L179.678 145.077L166.126 138.14C165.412 137.783 164.582 137.714 163.816 137.948C163.049 138.181 162.409 138.697 162.034 139.384C161.659 140.072 161.579 140.875 161.811 141.619C162.044 142.363 162.571 142.988 163.277 143.359L179.524 151.675C180.238 152.041 181.074 152.117 181.847 151.886C182.619 151.655 183.266 151.137 183.643 150.445L183.796 150.164L189.536 153.101C190.251 153.467 191.086 153.543 191.859 153.312C192.632 153.082 193.278 152.563 193.656 151.871L195.062 149.295L204.92 153.951L208.356 161.801C208.608 162.378 209.044 162.862 209.599 163.183L215.872 166.816C215.178 168.27 214.91 169.882 215.099 171.474C215.287 173.067 215.924 174.578 216.939 175.843C217.675 176.755 218.591 177.515 219.636 178.077C220.68 178.64 221.83 178.993 223.018 179.117C223.353 179.153 223.689 179.171 224.026 179.171C224.918 179.169 225.805 179.037 226.656 178.78C227.14 180.444 228.126 181.929 229.488 183.045C230.85 184.162 232.526 184.858 234.3 185.045C234.635 185.081 234.972 185.099 235.308 185.099C235.68 185.097 236.052 185.072 236.421 185.025C236.773 186.852 237.725 188.521 239.134 189.783C240.542 191.046 242.334 191.836 244.242 192.036C244.577 192.072 244.913 192.09 245.25 192.09C245.965 192.089 246.677 192.004 247.372 191.839C247.817 193.552 248.793 195.091 250.17 196.251C251.546 197.41 253.256 198.133 255.07 198.323C255.405 198.358 255.741 198.376 256.078 198.376C258.143 198.378 260.145 197.684 261.741 196.414L262.072 196.152L262.549 196.521C264.134 197.754 266.106 198.426 268.139 198.425C268.491 198.425 268.844 198.405 269.194 198.366C271.061 198.159 272.814 197.388 274.204 196.163C275.594 194.938 276.55 193.32 276.937 191.539C277.362 191.601 277.792 191.633 278.222 191.635C278.568 191.635 278.914 191.616 279.259 191.578C281.058 191.383 282.755 190.664 284.123 189.516C285.492 188.368 286.469 186.844 286.924 185.147C287.62 185.314 288.333 185.398 289.05 185.399C289.397 185.399 289.743 185.38 290.087 185.342C291.27 185.215 292.414 184.86 293.453 184.299C294.492 183.737 295.404 182.98 296.137 182.072C296.77 181.295 297.256 180.415 297.573 179.473C298.599 179.861 299.691 180.061 300.793 180.063C301.14 180.063 301.486 180.044 301.83 180.006C303.012 179.879 304.157 179.524 305.196 178.963C306.235 178.401 307.147 177.644 307.88 176.736C309.332 174.932 309.996 172.649 309.729 170.376C309.461 168.104 308.284 166.023 306.449 164.582L286.056 148.683C287.244 148.75 288.308 148.773 289.181 148.773C290.643 148.773 291.575 148.712 291.672 148.705C292.479 148.65 293.23 148.287 293.76 147.696C294.29 147.104 294.556 146.333 294.499 145.552C294.442 144.771 294.066 144.044 293.456 143.531C292.845 143.018 292.049 142.761 291.242 142.816C287.561 142.992 283.871 142.715 280.262 141.99C277.737 141.438 275.374 140.34 273.351 138.776L273.084 138.568C270.169 136.186 267.907 133.144 266.499 129.712C266.357 129.306 266.126 128.934 265.821 128.624C265.516 128.313 265.144 128.07 264.732 127.913C264.32 127.755 263.878 127.686 263.436 127.711C262.994 127.735 262.563 127.853 262.172 128.055L251.706 133.483L251.656 133.51C248.574 135.186 245.078 136.014 241.545 135.902C238.013 135.791 234.58 134.744 231.618 132.877L230.729 132.314L261.981 117.395L294.461 122.91C294.994 123 295.543 122.952 296.05 122.769L306.455 119.025L307.769 121.432C307.953 121.779 308.206 122.088 308.515 122.341C308.823 122.593 309.18 122.783 309.565 122.901C309.95 123.018 310.355 123.061 310.757 123.025C311.159 122.99 311.55 122.878 311.907 122.695C312.264 122.513 312.58 122.263 312.836 121.961C313.093 121.66 313.285 121.311 313.401 120.937C313.518 120.563 313.556 120.17 313.515 119.781C313.473 119.393 313.352 119.016 313.159 118.673L309.649 112.244L312.693 110.685L331.787 145.661L328.743 147.219L317.41 126.458C317.226 126.11 316.972 125.801 316.664 125.549C316.355 125.297 315.998 125.106 315.613 124.989C315.228 124.871 314.823 124.829 314.421 124.864C314.019 124.899 313.628 125.011 313.271 125.194C312.915 125.377 312.599 125.626 312.342 125.928C312.086 126.23 311.894 126.578 311.777 126.952C311.661 127.326 311.622 127.719 311.664 128.108C311.705 128.497 311.826 128.874 312.019 129.217L321.117 145.881L314.352 149.14C313.701 149.454 313.187 149.983 312.904 150.631L309.022 159.498C308.863 159.855 308.779 160.239 308.775 160.628C308.77 161.017 308.845 161.403 308.995 161.763C309.145 162.124 309.366 162.453 309.648 162.73C309.929 163.008 310.264 163.229 310.634 163.38C311.004 163.532 311.401 163.612 311.802 163.614C312.204 163.617 312.602 163.543 312.974 163.396C313.346 163.249 313.684 163.033 313.97 162.759C314.255 162.485 314.481 162.16 314.636 161.801L318.077 153.939L323.967 151.101L324.777 152.585C325.155 153.277 325.801 153.795 326.574 154.026C327.347 154.257 328.182 154.181 328.897 153.815L334.637 150.878L334.79 151.158C335.168 151.85 335.814 152.368 336.587 152.599C337.359 152.83 338.195 152.754 338.91 152.388L355.158 144.074C355.873 143.708 356.408 143.082 356.646 142.334C356.885 141.586 356.806 140.777 356.429 140.085ZM225.835 172.636C225.537 172.872 225.194 173.047 224.826 173.152C224.458 173.258 224.072 173.291 223.69 173.25C223.309 173.209 222.939 173.095 222.604 172.914C222.268 172.733 221.973 172.49 221.736 172.197C221.272 171.62 221.059 170.89 221.142 170.162C221.225 169.435 221.598 168.768 222.181 168.302L230.027 162.103C230.324 161.868 230.667 161.693 231.035 161.587C231.404 161.482 231.79 161.449 232.171 161.49C232.553 161.531 232.922 161.645 233.258 161.825C233.594 162.006 233.889 162.249 234.126 162.541C234.589 163.119 234.802 163.848 234.719 164.575C234.636 165.302 234.264 165.969 233.682 166.435L225.835 172.636ZM237.116 178.565C236.818 178.8 236.475 178.975 236.107 179.08C235.739 179.185 235.353 179.219 234.971 179.178C234.59 179.137 234.22 179.023 233.885 178.842C233.549 178.661 233.254 178.418 233.017 178.125C232.553 177.548 232.34 176.818 232.423 176.091C232.506 175.363 232.879 174.696 233.462 174.231L241.308 168.031C241.821 167.623 242.464 167.4 243.128 167.401C243.237 167.401 243.345 167.407 243.452 167.418C243.834 167.458 244.204 167.572 244.54 167.752C244.876 167.933 245.17 168.177 245.407 168.47C245.871 169.048 246.084 169.778 246.001 170.506C245.918 171.233 245.545 171.9 244.962 172.366L237.116 178.565ZM247.059 185.555C246.762 185.79 246.419 185.965 246.051 186.07C245.683 186.175 245.297 186.209 244.915 186.168C244.533 186.127 244.164 186.013 243.829 185.832C243.493 185.651 243.198 185.408 242.961 185.116C242.497 184.538 242.284 183.808 242.367 183.081C242.45 182.353 242.823 181.686 243.406 181.221L251.252 175.021C251.765 174.613 252.408 174.39 253.072 174.391C253.18 174.391 253.288 174.397 253.396 174.408C253.778 174.448 254.147 174.562 254.483 174.742C254.819 174.923 255.114 175.167 255.35 175.46C255.814 176.038 256.027 176.768 255.944 177.495C255.861 178.222 255.488 178.89 254.905 179.355L247.059 185.555ZM265.734 185.641L257.888 191.84C257.595 192.075 257.256 192.251 256.892 192.358C256.528 192.466 256.145 192.503 255.766 192.467C255.387 192.431 255.019 192.322 254.684 192.148C254.348 191.974 254.051 191.737 253.811 191.452C253.57 191.166 253.39 190.837 253.281 190.484C253.172 190.131 253.136 189.76 253.175 189.393C253.215 189.027 253.329 188.671 253.51 188.347C253.692 188.023 253.938 187.737 254.235 187.506L262.081 181.306C262.593 180.898 263.237 180.675 263.901 180.676C264.009 180.676 264.117 180.682 264.225 180.693C264.607 180.733 264.977 180.847 265.312 181.027C265.648 181.208 265.943 181.452 266.179 181.745C266.643 182.323 266.856 183.053 266.773 183.78C266.69 184.508 266.317 185.175 265.734 185.641ZM270.434 191.45C270.036 191.941 269.481 192.289 268.855 192.438C268.23 192.587 267.571 192.529 266.983 192.274L269.59 190.215C270.081 189.823 270.527 189.381 270.918 188.895C271.057 189.327 271.085 189.785 271.001 190.23C270.916 190.675 270.722 191.094 270.434 191.45Z" fill="white"></path><path d="M259.219 30.6006C257.077 30.6006 254.983 31.2156 253.202 32.3679C251.421 33.5201 250.033 35.1578 249.213 37.0739C248.393 38.99 248.179 41.0984 248.597 43.1326C249.015 45.1667 250.046 47.0351 251.561 48.5017C253.076 49.9682 255.005 50.9669 257.106 51.3715C259.207 51.7761 261.385 51.5684 263.364 50.7748C265.343 49.9811 267.034 48.6371 268.224 46.9126C269.415 45.1882 270.05 43.1608 270.05 41.0868C270.046 38.3067 268.904 35.6413 266.874 33.6754C264.844 31.7096 262.091 30.6038 259.219 30.6006ZM267.276 38.515C267.32 38.6478 267.325 38.7901 267.291 38.9257C267.256 39.0612 267.183 39.1848 267.08 39.2823L263.711 42.4619L264.506 46.9524C264.53 47.0901 264.514 47.2317 264.46 47.3612C264.406 47.4906 264.315 47.6027 264.198 47.6848C264.081 47.7669 263.943 47.8158 263.799 47.8258C263.655 47.8358 263.511 47.8067 263.383 47.7416L259.219 45.6219L255.055 47.7416C254.927 47.8066 254.783 47.8358 254.639 47.8257C254.495 47.8157 254.357 47.7669 254.24 47.6848C254.124 47.6026 254.033 47.4905 253.978 47.3611C253.924 47.2317 253.908 47.0901 253.932 46.9523L254.728 42.4618L251.359 39.2822C251.255 39.1846 251.182 39.061 251.148 38.9254C251.113 38.7897 251.119 38.6474 251.163 38.5146C251.208 38.3817 251.29 38.2636 251.4 38.1736C251.511 38.0835 251.645 38.0252 251.788 38.0051L256.444 37.3497L258.526 33.2652C258.597 33.1483 258.698 33.0513 258.82 32.9839C258.941 32.9165 259.079 32.8811 259.219 32.8811C259.359 32.8811 259.497 32.9165 259.619 32.9839C259.74 33.0513 259.842 33.1483 259.913 33.2652L261.995 37.3497L266.651 38.0051C266.794 38.0252 266.928 38.0836 267.038 38.1737C267.149 38.2638 267.231 38.382 267.276 38.515Z" fill="white"></path><path d="M269.355 56.0322C269.098 56.2718 268.812 56.4808 268.504 56.6547C267.638 57.1007 266.666 57.3172 265.685 57.2823C265.409 57.2823 265.136 57.2722 264.872 57.2611C264.645 57.2524 264.43 57.2436 264.225 57.2436C264.048 57.237 263.871 57.2508 263.697 57.2846C263.361 57.4264 263.041 57.6003 262.741 57.8039C262.063 58.256 261.322 58.6131 260.541 58.8646L264.372 69.0552C264.422 69.1878 264.509 69.3042 264.625 69.3907C264.74 69.4773 264.878 69.5306 265.023 69.5445C265.048 69.5467 265.074 69.5482 265.099 69.5482C265.232 69.5482 265.362 69.5151 265.478 69.4522C265.594 69.3892 265.691 69.2984 265.76 69.1887L268.014 65.6038L272.121 66.9471C272.259 66.9923 272.407 66.9988 272.549 66.9659C272.69 66.9329 272.82 66.862 272.922 66.7611C273.023 66.6602 273.094 66.5335 273.125 66.3956C273.155 66.2577 273.145 66.1142 273.095 65.9816L269.355 56.0322Z" fill="white"></path><path d="M254.734 57.2837C254.561 57.2503 254.385 57.2368 254.209 57.2435C254.003 57.2435 253.787 57.2522 253.568 57.261C253.296 57.2713 253.024 57.2814 252.75 57.2814C251.771 57.3168 250.799 57.1008 249.933 56.6553C249.624 56.4811 249.338 56.2719 249.081 56.0322L245.34 65.9815C245.291 66.114 245.281 66.2575 245.311 66.3954C245.342 66.5333 245.412 66.66 245.514 66.7609C245.616 66.8618 245.745 66.9328 245.887 66.9657C246.029 66.9986 246.177 66.9921 246.315 66.9469L250.421 65.604L252.675 69.1889C252.745 69.2987 252.842 69.3894 252.957 69.4524C253.073 69.5153 253.204 69.5484 253.337 69.5484C253.361 69.5484 253.387 69.5469 253.413 69.5447C253.558 69.5309 253.696 69.4775 253.811 69.391C253.926 69.3044 254.014 69.1881 254.063 69.0554L257.895 58.8649C257.114 58.6138 256.374 58.2571 255.697 57.8056C255.395 57.6001 255.072 57.4253 254.734 57.2837Z" fill="white"></path><path d="M275.183 38.4803C274.876 38.0668 274.631 37.6135 274.455 37.1338C274.353 36.6119 274.328 36.0788 274.38 35.5501C274.508 34.6282 274.362 33.6901 273.96 32.8452C273.4 32.0789 272.626 31.4831 271.728 31.1277C271.237 30.9123 270.78 30.6303 270.37 30.2902C270.019 29.8935 269.728 29.4507 269.505 28.975C269.138 28.1058 268.523 27.356 267.731 26.8135C266.859 26.4252 265.891 26.2844 264.939 26.4075C264.393 26.4582 263.842 26.4339 263.303 26.3352C262.807 26.165 262.338 25.928 261.911 25.6311C261.134 25.0475 260.199 24.6925 259.219 24.6082C258.239 24.6923 257.305 25.0473 256.527 25.6308C256.1 25.9275 255.632 26.1645 255.136 26.3349C254.597 26.4328 254.047 26.4571 253.501 26.4072C252.548 26.284 251.58 26.425 250.707 26.8139C249.916 27.3564 249.3 28.106 248.934 28.975C248.711 29.4508 248.42 29.8936 248.068 30.2901C247.659 30.63 247.201 30.912 246.71 31.1277C245.812 31.4831 245.038 32.0788 244.478 32.8452C244.077 33.6898 243.931 34.6272 244.058 35.5486C244.111 36.0775 244.086 36.6109 243.984 37.133C243.808 37.613 243.563 38.0666 243.256 38.4803C242.653 39.2332 242.287 40.1378 242.2 41.0865C242.287 42.0354 242.653 42.9402 243.256 43.6931C243.563 44.1067 243.808 44.56 243.984 45.0397C244.086 45.5615 244.111 46.0947 244.058 46.6233C243.931 47.5453 244.076 48.4834 244.478 49.3282C245.039 50.0945 245.813 50.6903 246.71 51.0457C247.202 51.2612 247.659 51.5432 248.068 51.8833C248.419 52.2798 248.711 52.7225 248.934 53.1981C249.3 54.0672 249.916 54.817 250.707 55.3596C251.58 55.7479 252.548 55.8886 253.5 55.7655C254.046 55.7152 254.597 55.7396 255.136 55.8379C255.632 56.0082 256.1 56.2453 256.528 56.5423C257.305 57.1258 258.239 57.4807 259.219 57.5648C260.199 57.4807 261.134 57.1258 261.911 56.5423C262.339 56.2454 262.807 56.0083 263.302 55.8378C263.841 55.7395 264.392 55.7151 264.938 55.7655C265.89 55.8891 266.859 55.7481 267.732 55.3587C268.523 54.8165 269.138 54.0669 269.505 53.198C269.728 52.7222 270.019 52.2794 270.371 51.8829C270.78 51.5431 271.237 51.2611 271.729 51.0453C272.626 50.69 273.401 50.0942 273.961 49.3278C274.362 48.4832 274.507 47.5458 274.38 46.6244C274.328 46.0955 274.353 45.5621 274.455 45.04C274.631 44.56 274.876 44.1065 275.183 43.6927C275.785 42.9399 276.152 42.0353 276.239 41.0865C276.152 40.1378 275.785 39.2332 275.183 38.4803ZM259.219 53.0707C256.771 53.0707 254.378 52.3679 252.343 51.051C250.307 49.7342 248.721 47.8625 247.784 45.6727C246.847 43.4829 246.602 41.0732 247.079 38.7485C247.557 36.4238 248.736 34.2884 250.467 32.6124C252.198 30.9364 254.403 29.795 256.805 29.3326C259.206 28.8702 261.694 29.1075 263.956 30.0146C266.218 30.9216 268.151 32.4577 269.511 34.4285C270.871 36.3993 271.597 38.7163 271.597 41.0865C271.593 44.2638 270.288 47.31 267.968 49.5566C265.647 51.8033 262.501 53.0671 259.219 53.0707Z" fill="white"></path><path d="M260.786 38.3679L259.218 35.2916L257.65 38.3681C257.594 38.477 257.512 38.5713 257.411 38.6426C257.309 38.714 257.191 38.7604 257.067 38.7777L253.559 39.2714L256.098 41.667C256.187 41.7517 256.255 41.8563 256.293 41.9718C256.332 42.0872 256.341 42.21 256.32 42.3296L255.721 45.7118L258.858 44.115C258.969 44.0583 259.092 44.0287 259.218 44.0287C259.343 44.0287 259.467 44.0583 259.578 44.115L262.715 45.7118L262.116 42.3295C262.095 42.2099 262.104 42.0871 262.143 41.9716C262.181 41.8562 262.248 41.7516 262.338 41.6668L264.876 39.2713L261.368 38.7776C261.244 38.7602 261.127 38.7138 261.025 38.6424C260.924 38.5711 260.842 38.4769 260.786 38.3679Z" fill="white"></path><path d="M208.898 262.133C208.898 265.623 208.056 268.895 206.374 271.949C204.753 275.003 202.166 277.465 198.614 279.335C195.124 281.205 190.698 282.14 185.338 282.14H174.4V307.195H161.311V241.939H185.338C190.387 241.939 194.687 242.811 198.24 244.556C201.793 246.302 204.441 248.701 206.187 251.755C207.994 254.809 208.898 258.268 208.898 262.133ZM184.777 271.575C188.392 271.575 191.072 270.765 192.817 269.144C194.563 267.462 195.435 265.124 195.435 262.133C195.435 255.775 191.883 252.597 184.777 252.597H174.4V271.575H184.777Z" fill="white"></path><path d="M230.344 263.442C232.027 260.699 234.209 258.549 236.889 256.991C239.631 255.432 242.748 254.653 246.238 254.653V268.397H242.779C238.665 268.397 235.549 269.363 233.43 271.295C231.373 273.227 230.344 276.593 230.344 281.392V307.195H217.256V255.401H230.344V263.442Z" fill="white"></path><path d="M302.267 280.176C302.267 282.046 302.142 283.729 301.893 285.225H264.029C264.341 288.964 265.649 291.894 267.955 294.013C270.262 296.132 273.097 297.192 276.463 297.192C281.325 297.192 284.784 295.104 286.841 290.928H300.958C299.462 295.914 296.595 300.028 292.357 303.269C288.118 306.447 282.914 308.037 276.744 308.037C271.757 308.037 267.27 306.946 263.281 304.764C259.354 302.521 256.269 299.373 254.025 295.322C251.844 291.271 250.753 286.596 250.753 281.298C250.753 275.938 251.844 271.232 254.025 267.181C256.207 263.13 259.261 260.014 263.187 257.832C267.114 255.651 271.633 254.56 276.744 254.56C281.667 254.56 286.062 255.619 289.926 257.739C293.852 259.858 296.875 262.881 298.994 266.807C301.176 270.671 302.267 275.128 302.267 280.176ZM288.71 276.437C288.648 273.071 287.433 270.391 285.064 268.397C282.696 266.34 279.798 265.311 276.37 265.311C273.129 265.311 270.386 266.309 268.142 268.303C265.961 270.235 264.621 272.946 264.122 276.437H288.71Z" fill="white"></path><path d="M375.207 254.653C381.564 254.653 386.675 256.617 390.539 260.543C394.466 264.408 396.429 269.83 396.429 276.811V307.195H383.341V278.587C383.341 274.536 382.312 271.451 380.255 269.331C378.199 267.15 375.394 266.059 371.841 266.059C368.289 266.059 365.453 267.15 363.334 269.331C361.277 271.451 360.248 274.536 360.248 278.587V307.195H347.16V278.587C347.16 274.536 346.131 271.451 344.074 269.331C342.018 267.15 339.213 266.059 335.66 266.059C332.045 266.059 329.178 267.15 327.059 269.331C325.002 271.451 323.974 274.536 323.974 278.587V307.195H310.885V255.401H323.974V261.665C325.657 259.484 327.807 257.77 330.425 256.523C333.105 255.277 336.034 254.653 339.213 254.653C343.264 254.653 346.879 255.526 350.058 257.271C353.237 258.954 355.698 261.385 357.444 264.563C359.126 261.572 361.557 259.172 364.736 257.365C367.977 255.557 371.467 254.653 375.207 254.653Z" fill="white"></path><path d="M414.553 249.231C412.246 249.231 410.314 248.514 408.756 247.081C407.26 245.585 406.512 243.746 406.512 241.565C406.512 239.383 407.26 237.576 408.756 236.142C410.314 234.646 412.246 233.898 414.553 233.898C416.859 233.898 418.76 234.646 420.256 236.142C421.814 237.576 422.593 239.383 422.593 241.565C422.593 243.746 421.814 245.585 420.256 247.081C418.76 248.514 416.859 249.231 414.553 249.231ZM421.003 255.401V307.195H407.915V255.401H421.003Z" fill="white"></path><path d="M481.148 280.176C481.148 282.046 481.023 283.729 480.774 285.225H442.91C443.222 288.964 444.531 291.894 446.837 294.013C449.143 296.132 451.979 297.192 455.345 297.192C460.206 297.192 463.665 295.104 465.722 290.928H479.839C478.343 295.914 475.476 300.028 471.238 303.269C467 306.447 461.795 308.037 455.625 308.037C450.639 308.037 446.151 306.946 442.162 304.764C438.236 302.521 435.151 299.373 432.907 295.322C430.725 291.271 429.635 286.596 429.635 281.298C429.635 275.938 430.725 271.232 432.907 267.181C435.088 263.13 438.142 260.014 442.069 257.832C445.995 255.651 450.514 254.56 455.625 254.56C460.549 254.56 464.943 255.619 468.807 257.739C472.734 259.858 475.757 262.881 477.876 266.807C480.057 270.671 481.148 275.128 481.148 280.176ZM467.592 276.437C467.529 273.071 466.314 270.391 463.946 268.397C461.577 266.34 458.679 265.311 455.251 265.311C452.01 265.311 449.268 266.309 447.024 268.303C444.842 270.235 443.502 272.946 443.004 276.437H467.592Z" fill="white"></path><path d="M502.855 263.442C504.538 260.699 506.72 258.549 509.4 256.991C512.142 255.432 515.258 254.653 518.749 254.653V268.397H515.29C511.176 268.397 508.06 269.363 505.941 271.295C503.884 273.227 502.855 276.593 502.855 281.392V307.195H489.767V255.401H502.855V263.442Z" fill="white"></path><path d="M595.559 262.133C595.559 265.623 594.717 268.895 593.034 271.949C591.414 275.003 588.827 277.465 585.275 279.335C581.784 281.205 577.359 282.14 571.999 282.14H561.061V307.195H547.972V241.939H571.999C577.048 241.939 581.348 242.811 584.901 244.556C588.453 246.302 591.102 248.701 592.847 251.755C594.655 254.809 595.559 258.268 595.559 262.133ZM571.438 271.575C575.053 271.575 577.733 270.765 579.478 269.144C581.223 267.462 582.096 265.124 582.096 262.133C582.096 255.775 578.543 252.597 571.438 252.597H561.061V271.575H571.438Z" fill="white"></path><path d="M600.551 281.111C600.551 275.876 601.579 271.232 603.636 267.181C605.755 263.13 608.591 260.014 612.144 257.832C615.759 255.651 619.779 254.56 624.204 254.56C628.068 254.56 631.434 255.339 634.301 256.897C637.231 258.455 639.568 260.419 641.313 262.787V255.401H654.495V307.195H641.313V299.622C639.63 302.053 637.293 304.079 634.301 305.699C631.372 307.258 627.975 308.037 624.111 308.037C619.748 308.037 615.759 306.915 612.144 304.671C608.591 302.427 605.755 299.28 603.636 295.228C601.579 291.115 600.551 286.409 600.551 281.111ZM641.313 281.298C641.313 278.12 640.69 275.408 639.443 273.165C638.197 270.858 636.514 269.113 634.395 267.929C632.275 266.683 630.001 266.059 627.57 266.059C625.139 266.059 622.895 266.651 620.838 267.836C618.782 269.02 617.099 270.765 615.79 273.071C614.543 275.315 613.92 277.995 613.92 281.111C613.92 284.228 614.543 286.97 615.79 289.338C617.099 291.645 618.782 293.421 620.838 294.667C622.958 295.914 625.201 296.537 627.57 296.537C630.001 296.537 632.275 295.945 634.395 294.761C636.514 293.514 638.197 291.769 639.443 289.525C640.69 287.219 641.313 284.477 641.313 281.298Z" fill="white"></path><path d="M679.432 263.442C681.115 260.699 683.297 258.549 685.977 256.991C688.719 255.432 691.835 254.653 695.326 254.653V268.397H691.867C687.753 268.397 684.637 269.363 682.518 271.295C680.461 273.227 679.432 276.593 679.432 281.392V307.195H666.344V255.401H679.432V263.442Z" fill="white"></path><path d="M718.446 266.153V291.208C718.446 292.953 718.851 294.231 719.661 295.041C720.534 295.789 721.967 296.163 723.962 296.163H730.039V307.195H721.811C710.779 307.195 705.263 301.835 705.263 291.115V266.153H699.093V255.401H705.263V242.593H718.446V255.401H730.039V266.153H718.446Z" fill="white"></path><path d="M767.219 254.653C773.39 254.653 778.376 256.617 782.178 260.543C785.98 264.408 787.881 269.83 787.881 276.811V307.195H774.792V278.587C774.792 274.473 773.764 271.326 771.707 269.144C769.65 266.901 766.845 265.779 763.293 265.779C759.678 265.779 756.811 266.901 754.692 269.144C752.635 271.326 751.606 274.473 751.606 278.587V307.195H738.518V255.401H751.606V261.852C753.352 259.608 755.564 257.863 758.244 256.617C760.987 255.308 763.978 254.653 767.219 254.653Z" fill="white"></path><path d="M847.54 280.176C847.54 282.046 847.416 283.729 847.166 285.225H809.303C809.614 288.964 810.923 291.894 813.229 294.013C815.535 296.132 818.371 297.192 821.737 297.192C826.598 297.192 830.058 295.104 832.114 290.928H846.231C844.736 295.914 841.869 300.028 837.63 303.269C833.392 306.447 828.188 308.037 822.017 308.037C817.031 308.037 812.544 306.946 808.555 304.764C804.628 302.521 801.543 299.373 799.299 295.322C797.118 291.271 796.027 286.596 796.027 281.298C796.027 275.938 797.118 271.232 799.299 267.181C801.481 263.13 804.535 260.014 808.461 257.832C812.388 255.651 816.907 254.56 822.017 254.56C826.941 254.56 831.335 255.619 835.2 257.739C839.126 259.858 842.149 262.881 844.268 266.807C846.45 270.671 847.54 275.128 847.54 280.176ZM833.984 276.437C833.922 273.071 832.706 270.391 830.338 268.397C827.97 266.34 825.071 265.311 821.643 265.311C818.402 265.311 815.66 266.309 813.416 268.303C811.235 270.235 809.895 272.946 809.396 276.437H833.984Z" fill="white"></path><path d="M869.248 263.442C870.93 260.699 873.112 258.549 875.792 256.991C878.534 255.432 881.651 254.653 885.141 254.653V268.397H881.682C877.568 268.397 874.452 269.363 872.333 271.295C870.276 273.227 869.248 276.593 869.248 281.392V307.195H856.159V255.401H869.248V263.442Z" fill="white"></path><path d="M934.803 314.283C945.843 305.686 955.112 295.825 962.612 284.7C970.617 273.491 976.936 261.524 982.076 248.715C987.3 236.41 991.344 223.264 994.292 209.78C997.268 196.465 999.317 182.785 1000.44 168.74C1001.28 155.089 1001.08 141.437 999.845 127.786C998.944 114.078 996.695 100.596 993.098 87.3378C989.81 73.8553 985.088 61.1314 979.356 48.5762C976.265 42.5093 972.837 36.4987 969.072 30.5442C973.118 36.1054 976.715 42.0879 979.862 48.4919C986.015 60.4571 990.821 73.6866 994.109 87.1691C997.707 100.427 1000.12 113.881 1001.36 127.533C1002.99 141.465 1003.39 155.257 1002.55 168.909C1001.76 182.897 999.909 196.718 996.989 210.37C994.546 223.769 990.503 236.916 985.447 250.231C980.308 263.041 974.073 275.513 966.067 286.722C962.191 292.566 957.922 298.128 953.259 303.41C948.203 308.41 942.922 313.102 937.416 317.485L934.803 314.283Z" fill="white"></path><path d="M958.9 256.218C958.451 255.6 958.029 255.151 957.636 254.87L955.107 252.174C953.084 250.432 950.921 248.888 948.617 247.54C944.487 244.591 939.936 242.232 935.638 241.39C935.413 242.121 935.385 242.991 935.554 244.003C935.61 244.34 935.498 244.705 935.217 245.098L935.976 249.649C936.481 250.604 936.819 251.587 936.987 252.598L939.011 258.496C939.404 258.777 939.657 259.255 939.769 259.929C940.163 260.21 940.416 260.687 940.528 261.361C940.978 261.979 941.624 262.738 942.467 263.636C944.574 266.922 947.777 270.546 950.811 273.157C953.93 276.275 957.891 278.212 961.768 279.644C959.633 277.229 957.835 274.757 956.374 272.23C954.632 270.095 953.03 267.764 951.569 265.236L947.354 258.664C947.242 257.989 946.961 257.343 946.511 256.726C946.062 256.108 945.781 255.462 945.668 254.787L947.776 258.074C950.08 261.5 952.552 264.899 955.193 268.269C955.643 268.887 956.064 269.336 956.458 269.617C956.907 270.235 957.329 270.684 957.722 270.965C958.228 271.92 958.902 272.847 959.745 273.746C961.037 275.263 962.527 276.92 964.212 278.717L964.886 276.526C965.111 275.796 965.139 274.925 964.97 273.914C965.026 272.172 964.886 270.29 964.548 268.268C964.267 266.582 963.789 264.757 963.115 262.79C962.103 260.88 961.12 259.139 960.165 257.566C959.715 256.948 959.294 256.499 958.9 256.218Z" fill="white"></path><path d="M997.756 286.633C994.722 287.139 991.829 287.449 989.076 287.561C985.985 287.73 983.036 287.703 980.226 287.479C977.08 287.31 974.046 286.777 971.124 285.879C973.737 289.081 977.277 291.608 981.238 293.546C985.2 295.483 989.498 296.325 994.218 296.577L1000.79 295.481C1003.43 294.694 1005.88 293.767 1008.12 292.699C1009.42 292.137 1010.68 291.406 1011.92 290.507C1013.21 289.945 1014.3 289.243 1015.2 288.4L1017.06 287.052C1017.34 286.658 1017.79 286.237 1018.4 285.787C1019.25 284.607 1020.12 283.596 1021.02 282.753C1017.31 279.214 1012.84 277.361 1007.87 275.592C1005.34 274.975 1002.84 274.526 1000.37 274.245C998.963 274.133 997.586 274.189 996.238 274.414C995.507 274.19 994.805 274.134 994.131 274.246L992.614 274.499C990.535 274.5 988.484 274.668 986.462 275.006C984.158 275.736 982.023 276.439 980.057 277.113C978.146 278.125 976.405 279.108 974.832 280.064L972.978 281.412C972.36 281.862 971.77 282.48 971.208 283.267C973.399 283.94 975.563 284.446 977.698 284.782L980.9 285.287C981.631 285.512 982.165 285.596 982.502 285.54C983.232 285.765 983.766 285.849 984.103 285.793C988.71 286.41 993.402 286.493 998.178 286.043C1000.93 285.93 1003.63 285.481 1006.27 284.694C1004.98 285.256 1003.66 285.649 1002.31 285.874L997.756 286.633Z" fill="white"></path><path d="M977.693 241.131C976.597 237.676 974.489 234.39 971.961 231.694C968.842 228.576 964.712 225.628 960.161 223.269C955.694 221.415 951.311 220.068 947.097 219.731C947.209 220.406 947.181 221.276 947.013 222.344L947.182 223.355C947.238 223.692 947.491 224.17 947.94 224.787C948.222 226.473 948.868 228.27 949.879 230.18C950.048 231.192 950.385 232.175 950.891 233.13C951.397 234.085 951.875 234.871 952.324 235.489C953.673 237.343 954.993 239.028 956.286 240.544C961.343 245.937 968.929 250.908 976.43 252.255C974.351 250.176 972.468 248.238 970.782 246.441C968.703 244.363 966.821 242.425 965.135 240.627C964.236 239.392 963.365 238.324 962.522 237.426C962.016 236.471 961.314 235.375 960.415 234.139C958.729 232.342 957.184 230.348 955.779 228.157C957.464 229.954 959.178 231.92 960.92 234.055C961.37 234.673 962.016 235.431 962.859 236.33C963.309 236.948 963.955 237.706 964.798 238.605C966.371 239.728 967.804 241.048 969.096 242.565L973.985 246.946C975.558 248.069 977.16 249.361 978.789 250.822C979.014 250.091 979.07 249.389 978.958 248.715C979.182 247.985 979.238 247.282 979.126 246.608C978.845 244.923 978.367 243.097 977.693 241.131Z" fill="white"></path><path d="M986.459 256.298C992.528 261.522 1001.21 263.711 1009.38 262.868C1011.41 262.53 1013.54 261.828 1015.79 260.76C1016.8 260.591 1017.92 260.057 1019.16 259.158L1022.03 257.641C1024.22 256.236 1026.18 254.522 1027.92 252.5C1028.2 252.106 1028.65 251.685 1029.27 251.235L1030.11 250.055C1030.96 248.876 1031.63 247.724 1032.14 246.6C1028.6 244.073 1024.21 242.725 1019.41 241.967C1014.19 241.8 1009.55 242.053 1004.49 242.897C1000.95 243.487 997.077 245.173 993.791 247.28C992.217 248.235 990.672 249.359 989.156 250.652L987.302 252C987.077 252.731 986.656 253.321 986.038 253.77C988.173 254.107 990.28 254.275 992.359 254.275C994.494 254.611 996.601 254.78 998.68 254.779C1001.04 254.386 1003.26 254.189 1005.34 254.188L1008.37 253.682C1009.38 253.514 1010.37 253.176 1011.32 252.671C1014.02 252.221 1016.66 251.434 1019.24 250.31L1011.49 253.682C1010.14 253.907 1008.82 254.3 1007.53 254.862L1003.48 255.537C1000.79 255.987 998.062 256.268 995.309 256.381C992.556 256.494 989.606 256.466 986.459 256.298Z" fill="white"></path><path d="M980.048 205.401C978.419 203.94 976.649 202.676 974.738 201.609C972.828 200.542 970.749 199.503 968.501 198.492C964.119 197.145 959.82 196.303 955.691 196.472C955.635 198.213 955.916 199.899 956.534 201.528C957.04 202.483 957.518 203.269 957.967 203.887L959.484 206.752C961.086 210.123 963.699 213.324 966.649 215.431C972.128 220.233 979.966 223.603 987.298 223.939L980.808 219.305L974.74 214.081C973.11 212.621 971.453 210.992 969.767 209.194L964.709 203.802C966.395 205.599 968.221 207.2 970.188 208.604C972.717 211.301 975.723 213.744 979.207 215.934C982.353 218.181 985.641 220.231 989.068 222.084C989.236 221.017 989.012 219.669 988.393 218.04C988.168 216.691 987.747 215.203 987.129 213.574C986.173 212.001 985.049 210.456 983.757 208.939C982.802 207.366 981.565 206.187 980.048 205.401Z" fill="white"></path><path d="M1004.74 225.706C1002.38 226.099 999.828 226.352 997.075 226.465C1002.98 230.678 1011.49 231.856 1018.9 229.58C1022.86 228.399 1026.66 226.208 1030.36 223.511C1031.26 222.668 1031.99 221.853 1032.56 221.067C1033.45 220.224 1034.16 219.24 1034.66 218.117C1036.12 216.487 1037.36 214.549 1038.37 212.302C1034.49 210.87 1030.11 209.522 1025.48 209.776C1023.4 209.776 1021.18 209.973 1018.82 210.367C1016.46 210.76 1014.13 211.322 1011.82 212.053C1010.14 212.334 1008.51 212.952 1006.93 213.908C1005.36 214.863 1003.82 215.987 1002.3 217.279C1000.73 218.234 999.518 219.302 998.676 220.482C997.496 221.718 996.653 222.898 996.148 224.022C1000.31 224.021 1004.27 223.88 1008.03 223.598C1012.08 222.924 1015.87 221.771 1019.41 220.142C1022.05 219.355 1024.32 218.455 1026.23 217.444C1025.28 217.95 1024.16 218.484 1022.86 219.046C1021.96 219.888 1020.87 220.591 1019.58 221.153C1017.33 222.221 1014.89 223.148 1012.24 223.935C1009.94 224.665 1007.44 225.256 1004.74 225.706Z" fill="white"></path><path d="M995.301 194.022C994.964 192 993.952 189.05 992.435 186.185C990.412 183.405 987.883 180.709 985.523 179.024C978.528 174.474 968.835 172.453 961.672 173.128L962.094 175.656C962.206 176.331 962.515 177.145 963.021 178.1C963.92 179.336 964.847 180.74 965.803 182.313C967.91 185.599 970.944 188.211 973.304 189.896C979.204 194.109 986.874 196.467 993.532 195.876C989.318 193.461 985.244 190.849 981.311 188.041C979.344 186.637 977.546 185.205 975.916 183.744L971.028 179.363C972.657 180.823 974.259 182.115 975.832 183.239C981.732 187.451 988.222 191.046 995.301 194.022Z" fill="white"></path><path d="M1003.14 197.391C1009.29 200.003 1017.13 200.254 1023.96 197.557C1027.41 196.461 1030.61 193.848 1033.73 190.73C1035.19 189.1 1036.48 187.499 1037.61 185.926C1038.11 184.802 1038.65 183.847 1039.21 183.06C1039.38 181.993 1039.57 181.094 1039.8 180.364C1033.06 177.331 1023.45 178.933 1015.61 181.8C1012.75 183.317 1009.46 185.424 1007.27 187.868C1004.57 190.397 1002.89 192.757 1002.21 194.948C1005.98 194.666 1009.69 194.048 1013.34 193.092C1016.65 192.193 1020.08 190.928 1023.62 189.298C1025.53 188.287 1027.58 187.079 1029.77 185.674C1027.58 187.079 1025.56 188.456 1023.7 189.804L1016.96 193.007C1012.8 195.087 1008.2 196.548 1003.14 197.391Z" fill="white"></path><path d="M984.847 162.507C982.937 161.44 981.167 160.176 979.537 158.716C982.234 160.344 985.24 161.748 988.556 162.928C991.59 164.5 994.764 165.876 998.08 167.055C997.855 165.707 997.489 164.556 996.984 163.601C996.422 162.309 995.691 161.045 994.792 159.809C992.769 157.028 990.325 154.838 987.543 153.743C984.088 151.721 980.295 150.794 976.502 149.868C972.288 149.531 968.664 149.616 965.125 150.207C965.406 151.892 965.996 153.353 966.895 154.588C967.794 155.824 968.89 157.2 970.182 158.717C971.081 159.953 972.318 161.133 973.891 162.256C975.127 163.435 976.335 164.446 977.515 165.289C983.668 167.9 990.748 169.837 996.731 168.32C992.629 166.579 988.668 164.641 984.847 162.507Z" fill="white"></path><path d="M1025.13 167.22C1026.76 166.602 1028.34 165.646 1029.85 164.354C1031.03 163.118 1032.35 161.685 1033.81 160.056C1034.94 158.482 1035.89 156.937 1036.68 155.42C1037.75 153.51 1038.31 151.684 1038.36 149.943C1035.08 148.932 1031.45 149.017 1027.41 149.692C1023.36 150.366 1019.48 152.052 1016.11 153.654C1013.25 155.171 1011.06 157.615 1008.87 160.059C1007.69 161.296 1006.84 162.475 1006.34 163.599C1005.5 164.779 1004.99 165.903 1004.82 166.97C1008.19 166.408 1011.51 165.508 1014.77 164.272C1018.03 163.036 1021.06 161.49 1023.87 159.636L1029.43 155.59L1026.73 158.119C1025.83 158.961 1024.91 159.636 1023.95 160.141C1022.44 161.434 1020.55 162.614 1018.31 163.682C1014.54 166.042 1010.33 167.784 1005.66 168.908C1011.73 171.014 1018.9 170.339 1025.13 167.22Z" fill="white"></path><path d="M979.704 141.019C985.266 143.209 991.672 144.22 997.571 142.196C993.582 141.129 989.705 139.697 985.94 137.9C982.175 136.103 978.72 134.081 975.573 131.835C977.146 132.958 978.86 133.885 980.714 134.615C983.355 135.906 986.165 137.17 989.143 138.405C992.402 139.248 995.632 139.921 998.835 140.426C998.385 139.808 997.88 138.853 997.318 137.561C996.812 136.606 995.941 135.539 994.705 134.36C992.766 132.085 990.406 130.4 987.625 129.305C980.966 126.778 972.538 126.105 966.723 128.634C966.892 129.645 967.426 130.768 968.325 132.004C969.224 133.24 970.292 134.448 971.528 135.627C972.764 136.807 974.141 137.79 975.658 138.576C976.838 139.419 978.187 140.233 979.704 141.019Z" fill="white"></path><path d="M1027.15 135.703C1028.67 134.411 1029.82 133.006 1030.61 131.489C1031.73 129.916 1032.69 128.371 1033.47 126.854L1034.65 121.46C1027.74 120.534 1019.82 122.895 1013.75 127.025C1011.39 128.458 1009.2 130.902 1007.51 133.262C1006.73 134.779 1006.08 136.099 1005.58 137.223C1005.07 138.347 1004.73 139.442 1004.57 140.51C1007.88 139.61 1010.97 138.402 1013.84 136.885C1016.7 135.367 1019.37 133.71 1021.84 131.912L1026.39 128.035C1023.75 130.9 1020.58 133.681 1016.87 136.379C1013.44 138.683 1009.76 140.509 1005.83 141.858C1011.31 143.542 1018.39 142.362 1023.53 138.906C1024.76 138.007 1025.97 136.939 1027.15 135.703Z" fill="white"></path><path d="M984.673 114.726C982.819 113.996 981.133 113.238 979.616 112.452C978.549 112.284 977.622 111.919 976.835 111.357C976.104 111.132 975.346 110.739 974.559 110.178C976.076 110.964 977.734 111.553 979.532 111.946C982.117 112.901 984.87 113.828 987.792 114.726C990.657 115.287 993.663 115.652 996.809 115.82C996.36 115.202 995.882 114.416 995.376 113.461L992.848 110.765C990.488 109.08 988.128 107.395 985.431 106.805C983.97 106.356 982.341 105.935 980.543 105.542L975.317 105.374C972.283 105.88 968.744 106.471 966.3 107.398C966.862 108.69 967.564 109.785 968.407 110.684C969.306 111.92 970.346 112.959 971.526 113.802L975.066 116.329C976.583 117.115 977.875 117.593 978.943 117.761C984.421 119.446 990.742 119.95 995.545 117.59C991.612 116.86 987.988 115.906 984.673 114.726Z" fill="white"></path><path d="M1022.68 108.906C1023.52 107.726 1024.34 106.378 1025.13 104.861C1025.91 103.344 1026.53 101.855 1026.98 100.394C1027.71 98.5402 1027.96 96.9391 1027.74 95.5908C1025.04 95.0013 1021.5 95.5918 1018.13 97.1934C1016.84 97.7554 1015.4 98.514 1013.83 99.4693C1012.26 100.425 1010.85 101.352 1009.62 102.251C1007.34 104.189 1005.66 106.549 1004.48 108.825C1003.64 110.005 1003.13 111.128 1002.96 112.196C1002.46 113.319 1002.12 114.415 1001.95 115.482C1004.87 114.302 1007.57 112.813 1010.04 111.015C1012.57 109.554 1014.87 107.784 1016.95 105.705C1018.47 104.412 1019.82 103.148 1021 101.912L1019.31 104.272C1018.75 105.058 1018.16 105.676 1017.54 106.126C1016.08 107.755 1014.59 109.216 1013.07 110.509C1010.32 112.7 1007.04 114.807 1003.21 116.83C1009.03 117.419 1015.01 115.902 1019.56 112.025C1020.52 111.519 1021.56 110.479 1022.68 108.906Z" fill="white"></path><path d="M976.58 91.1324C979.108 91.75 981.777 92.171 984.586 92.3952C987.115 93.0128 989.756 93.2652 992.509 93.1524C991.75 91.72 990.401 89.8663 988.631 88.6025C986.271 86.9175 984.08 86.2437 981.889 85.5699C975.989 84.4753 968.825 85.1506 964.106 88.0164C964.949 89.9545 967.309 91.6395 969.669 93.3245C971.945 94.5039 974.221 95.6833 976.917 96.2728C981.806 97.5361 987.452 97.1139 991.75 94.8379C988.211 94.389 984.811 93.7435 981.552 92.9013C979.754 92.5084 978.125 92.0873 976.664 91.6381C975.147 90.8518 973.658 90.234 972.197 89.7848L976.58 91.1324Z" fill="white"></path><path d="M998.745 93.1515C1003.97 93.3192 1009.36 91.3802 1012.9 87.6718C1014.67 85.8176 1016.86 83.3735 1017.96 80.5924C1019.05 77.8114 1019.56 74.6091 1019.05 71.5755C1013.83 71.4078 1007.68 75.0323 1003.21 79.4149C1001.44 81.2691 999.756 83.6289 999.082 85.82C997.902 88.0955 997.228 90.2866 997.481 91.8034C1000.07 90.6794 1002.42 89.2464 1004.56 87.5046C1006.69 85.7627 1008.66 84.0489 1010.46 82.3633C1009.67 83.8802 1008.52 85.2849 1007 86.5772C1004.64 89.0495 1001.89 91.2409 998.745 93.1515Z" fill="white"></path><path d="M972.279 71.5827C976.887 72.2 981.775 72.4239 986.944 72.2546C986.185 70.8222 984.415 69.5584 982.645 68.2946C980.875 67.0309 978.684 66.3571 976.071 66.2732C970.762 65.5999 964.778 67.1176 960.649 70.4048C961.098 71.0227 961.913 71.7529 963.093 72.5954C963.88 73.157 964.835 73.6906 965.959 74.196C968.234 75.3754 970.426 76.0493 972.617 76.7231C977.337 76.9752 982.393 76.1317 986.101 73.4345C983.011 73.6035 979.865 73.4355 976.662 72.9303C973.459 72.4252 970.566 71.6953 967.981 70.7407C969.442 71.1899 970.875 71.4706 972.279 71.5827Z" fill="white"></path><path d="M1005.06 65.5946C1006.33 63.8247 1007.42 61.0437 1008.52 58.2626C1009.02 57.139 1009.33 55.8749 1009.44 54.4704C1009.56 53.0659 1009.33 51.7176 1008.77 50.4256C1004.13 50.6791 998.572 54.7249 995.117 58.9389C993.853 60.7087 992.589 62.4785 991.915 64.6696C991.241 66.8607 991.073 68.9675 991.326 70.4843C995.034 67.7871 999.163 64.5 1002.11 60.3703L1004.64 56.8307C1003.01 59.5275 1001.21 62.2525 999.248 65.0056C997.225 67.4216 994.978 69.5287 992.506 71.3268C997.226 71.5789 1001.52 69.3029 1005.06 65.5946Z" fill="white"></path><path d="M979.609 53.211C979.16 52.5931 978.542 52.0033 977.755 51.4416C976.968 50.8799 976.21 50.4868 975.479 50.2622C974.356 49.7567 973.26 49.4198 972.192 49.2515C971.462 49.0269 970.563 48.8304 969.495 48.662C964.355 48.9999 958.961 50.9389 955.843 54.0573C957.107 55.4054 958.793 56.1636 960.984 56.8374C962.108 57.3428 963.204 57.6798 964.271 57.8481L967.474 58.3532C971.604 58.1841 976.07 56.9193 979.272 54.3065C976.238 54.8126 973.317 54.9535 970.508 54.7292C969.175 54.6228 967.88 54.5101 966.624 54.3911C968.607 54.3711 970.716 54.1747 972.951 53.8019C975.03 53.8015 977.25 53.6046 979.609 53.211Z" fill="white"></path><path d="M994.947 45.4558C995.509 44.6692 996.043 43.7141 996.548 42.5905C997.054 41.4668 997.363 40.2027 997.475 38.7982C998.064 36.1015 997.643 33.5735 997.305 31.5511C992.754 32.3102 988.204 36.1873 985.255 40.3169C985.03 41.0473 984.665 41.9743 984.159 43.098C983.654 44.2216 983.317 45.3172 983.148 46.3846C982.924 47.115 982.896 47.9858 983.064 48.997C982.896 50.0644 982.868 50.9352 982.98 51.6093C984.778 49.9237 986.407 48.2661 987.868 46.6367C989.329 45.0073 990.593 43.2374 991.66 41.3272C992.503 40.1473 993.149 38.827 993.598 37.3662C992.699 40.2877 991.407 42.9283 989.722 45.2881C988.43 47.9287 986.717 50.12 984.582 51.8619C988.206 51.7771 992.419 48.9955 994.947 45.4558Z" fill="white"></path><path d="M963.173 38.8035C961.769 38.6914 960.561 38.7196 959.549 38.8883C958.819 38.6637 958.117 38.6077 957.442 38.7201C956.768 38.8326 956.235 38.7484 955.841 38.4676C956.909 38.6359 957.948 38.6358 958.959 38.4671C963.061 38.1294 966.938 37.4827 970.59 36.5271C970.533 36.19 970.309 35.8811 969.915 35.6002C969.578 35.6565 969.213 35.5442 968.82 35.2633C968.37 34.6454 967.612 34.2523 966.544 34.0839C964.943 33.8314 963.341 33.5788 961.234 33.4106C959.212 33.748 957.077 34.4506 954.829 35.5183C952.919 36.5298 951.234 37.8503 949.773 39.4797C950.56 40.0414 951.318 40.4345 952.049 40.6591C952.836 41.2208 953.763 41.5858 954.83 41.7542C956.432 42.0068 958.538 42.175 960.645 42.3432C964.185 41.7528 968.062 40.0668 970.758 37.5383L963.173 38.8035Z" fill="white"></path><path d="M974.972 34.7568C978.512 34.1663 981.714 31.5535 983.736 28.0982C984.495 26.4127 985.168 24.2216 985.337 22.1148L984.746 18.5756C984.915 17.5082 984.746 16.497 984.24 15.542C982.218 15.8794 980.364 17.228 978.594 19.0822C977.246 20.3464 975.561 22.7062 974.802 24.3917C974.044 26.0772 973.37 28.2683 973.623 29.7851C973.455 30.8525 973.427 31.7233 973.539 32.3975L973.876 34.4199C976.517 31.5543 978.736 28.2394 980.533 24.4751C981.039 23.3514 981.376 22.2559 981.544 21.1885C981.657 21.8626 981.572 22.3963 981.292 22.7896L980.618 24.9807L979.101 28.3517C978.09 30.599 976.714 32.7341 974.972 34.7568Z" fill="white"></path><path d="M951.036 25.2381C954.351 24.3387 957.637 23.2708 960.896 22.0343C960.222 21.1075 958.62 20.8549 957.019 20.6024C955.923 20.2655 953.816 20.0972 952.299 20.3503C948.844 21.4463 945.136 24.1435 943.029 27.0932L945.221 27.767C945.951 27.9916 946.85 28.1881 947.918 28.3565C949.519 28.6091 951.036 28.356 952.553 28.103C956.008 27.007 958.874 25.4897 961.065 23.0455C959.716 23.2705 958.564 23.6358 957.609 24.1416L951.036 25.2381Z" fill="white"></path><path d="M964.267 20.4327C967.132 18.9154 969.829 16.3869 970.84 13.1003C971.682 11.9204 971.851 9.81364 972.019 7.7069L971.513 4.67329C971.007 3.71832 970.53 2.93188 970.08 2.31398C967.215 3.83126 964.181 7.4553 963.255 11.2475C962.412 12.4274 962.244 14.5342 962.497 16.051L963.171 20.0958C965.475 17.2865 967.019 14.084 967.806 10.4884C968.143 10.0165 968.409 9.49396 968.604 8.9209C968.611 9.04449 968.626 9.1737 968.648 9.30853C968.367 9.70182 968.283 10.2355 968.396 10.9097C968.227 11.9771 967.89 13.0727 967.385 14.1963C966.879 15.32 966.514 16.247 966.289 16.9774C965.784 18.101 965.11 19.2528 964.267 20.4327Z" fill="white"></path><path d="M951.287 8.04717C952.13 8.94591 952.944 9.67611 953.731 10.2378C954.574 11.1365 955.248 12.0634 955.754 13.0184C955.754 9.9004 954.152 6.52989 951.708 4.33927C950.528 3.49677 948.758 2.23301 946.566 1.55919C945.836 1.33459 944.937 1.1381 943.869 0.969727L940.835 1.47581C941.426 5.01501 944.123 8.72243 947.073 10.8287C948.337 12.1768 949.517 13.0193 951.119 13.2719C952.804 14.03 954.321 13.777 955.417 14.1139C953.506 10.9682 951.174 8.41236 948.421 6.44651L945.471 4.34024C945.864 4.62107 946.426 4.87379 947.157 5.0984L951.287 8.04717Z" fill="white"></path></svg>